<svg width="17" height="12" viewBox="0 0 17 12" fill="none" xmlns="http://www.w3.org/2000/svg">
<path d="M14.8308 12H2.16892C1.98929 12 1.83459 11.8769 1.79889 11.7055L0.0076706 3.15659C-0.0223625 3.01348 0.0373259 2.86668 0.159914 2.78243C0.282313 2.698 0.444378 2.69248 0.572821 2.7679L5.4055 5.6046L8.16156 0.204188C8.22483 0.0802052 8.35441 0.00110668 8.49664 2.979e-06C8.63056 -0.000548872 8.76958 0.0756065 8.83513 0.198669L11.6826 5.55162L16.4271 2.76809C16.5557 2.69267 16.7174 2.69837 16.84 2.78262C16.9626 2.86687 17.0223 3.01366 16.9924 3.15677L15.2012 11.7057C15.1649 11.8769 15.0102 12 14.8308 12Z" fill="#FF9926"/>
</svg>
