<svg width="19" height="19" viewBox="0 0 19 19" fill="none" xmlns="http://www.w3.org/2000/svg">
<path d="M9.5 19C14.7467 19 19 14.7467 19 9.5C19 4.2533 14.7467 0 9.5 0C4.2533 0 0 4.2533 0 9.5C0 14.7467 4.2533 19 9.5 19Z" fill="#E84142"/>
<path d="M12.8513 9.74686C13.1805 9.17835 13.7116 9.17835 14.0407 9.74686L16.0903 13.3449C16.4195 13.9134 16.1502 14.3772 15.4919 14.3772H11.3628C10.712 14.3772 10.4427 13.9134 10.7643 13.3449L12.8513 9.74686ZM8.88678 2.82009C9.21591 2.25158 9.73953 2.25158 10.0687 2.82009L10.525 3.64292L11.6021 5.53544C11.8639 6.07402 11.8639 6.70985 11.6021 7.24843L7.98914 13.5095C7.66 14.0181 7.11394 14.3398 6.50803 14.3772H3.50843C2.85016 14.3772 2.58087 13.9209 2.91 13.3449L8.88678 2.82009Z" fill="white"/>
</svg>
