<svg width="20" height="19" viewBox="0 0 20 19" fill="none" xmlns="http://www.w3.org/2000/svg">
<path d="M0.976562 0.09375C0.953125 0.148438 0.726562 0.828125 0.46875 1.60156L0 3.00781L0.320312 4.5625L0.648438 6.125L0.421875 6.30469L0.195312 6.49219L0.492188 6.73438L0.789062 6.97656L0.570312 7.15625L0.351562 7.34375L0.648438 7.61719L0.945312 7.89844L0.765625 8.04688L0.585938 8.1875L0.984375 8.64844C1.20312 8.89844 1.40625 9.14062 1.4375 9.19531C1.46875 9.25 1.1875 10.2266 0.820312 11.375L0.15625 13.4531L0.796875 15.6328C1.17969 16.9219 1.47656 17.8125 1.53125 17.8125C1.58594 17.8125 2.58594 17.5469 3.75781 17.2266L5.88281 16.6406L6.28125 16.9531C6.5 17.1328 7.07812 17.5547 7.57031 17.8906L8.46875 18.5156H10H11.5312L12.3984 17.9141C12.875 17.5781 13.4609 17.1562 13.6953 16.9688L14.125 16.6328L16.2422 17.2266C17.4141 17.5469 18.4141 17.8125 18.4688 17.8125C18.5312 17.8125 18.8047 16.9922 19.2109 15.625L19.8516 13.4375L19.1797 11.3672C18.7969 10.2031 18.5312 9.25781 18.5625 9.20312C18.5938 9.14844 18.7969 8.89844 19.0156 8.64844L19.4141 8.1875L19.2344 8.04688L19.0547 7.89844L19.3516 7.61719L19.6484 7.34375L19.4297 7.15625L19.2031 6.97656L19.5 6.73438L19.7891 6.49219L19.5703 6.3125L19.3516 6.125L19.6797 4.57031L20 3.01562L19.5156 1.53906C19.2422 0.726562 18.9844 0.046875 18.9375 0.0234375C18.8906 0.0078125 17.4375 0.523438 15.7031 1.17188L12.5625 2.34375H10H7.4375L4.30469 1.17188C2.57812 0.523438 1.13281 0 1.08594 0C1.04688 0 0.992188 0.046875 0.976562 0.09375ZM7.97656 11.6484C8.10156 11.9141 8.20312 12.1406 8.1875 12.1562C8.17188 12.1719 7.78906 12.0625 7.34375 11.9219L6.52344 11.6641L7.03125 11.4219C7.3125 11.2969 7.58594 11.1797 7.63281 11.1797C7.6875 11.1719 7.84375 11.3828 7.97656 11.6484ZM12.9297 11.4141C13.2188 11.5391 13.4375 11.6641 13.4219 11.6797C13.3672 11.7344 11.8438 12.1797 11.8125 12.1484C11.7656 12.1094 12.2656 11.1719 12.3359 11.1719C12.3672 11.1719 12.6406 11.2812 12.9297 11.4141ZM11.2812 15.25C11.5703 15.4375 11.5859 15.5 11.6875 16.5C11.7266 16.8594 11.7109 17.0312 11.6562 17.0312C11.6094 17.0312 11.5469 17 11.5234 16.9531C11.4609 16.8516 8.53906 16.8516 8.47656 16.9531C8.45312 16.9922 8.39062 17.0312 8.34375 17.0312C8.28906 17.0312 8.28125 16.8203 8.32031 16.3984C8.42969 15.1484 8.5 15.0938 9.98438 15.0859C10.9297 15.0781 11.0391 15.0938 11.2812 15.25Z" fill="white"/>
</svg>
