<svg width="19" height="17" viewBox="0 0 19 17" fill="none" xmlns="http://www.w3.org/2000/svg">
<g clip-path="url(#clip0_87_1312)">
<path d="M14.349 5.17612C14.0026 4.97313 13.5573 4.97313 13.1615 5.17612L10.3906 6.85074L8.51042 7.91641L5.78906 9.59104C5.44271 9.79403 4.9974 9.79403 4.60156 9.59104L2.47396 8.27164C2.1276 8.06865 1.88021 7.66268 1.88021 7.20597V4.66865C1.88021 4.26268 2.07812 3.85671 2.47396 3.60298L4.60156 2.33432C4.94792 2.13134 5.39323 2.13134 5.78906 2.33432L7.91667 3.65373C8.26302 3.85671 8.51042 4.26268 8.51042 4.7194V6.39403L10.3906 5.27761V3.55223C10.3906 3.14626 10.1927 2.74029 9.79687 2.48656L5.83854 0.101488C5.49219 -0.101497 5.04687 -0.101497 4.65104 0.101488L0.59375 2.53731C0.197917 2.74029 0 3.14626 0 3.55223V8.32238C0 8.72835 0.197917 9.13433 0.59375 9.38806L4.60156 11.7731C4.94792 11.9761 5.39323 11.9761 5.78906 11.7731L8.51042 10.1493L10.3906 9.03283L13.112 7.40895C13.4583 7.20597 13.9036 7.20597 14.2995 7.40895L16.4271 8.67761C16.7734 8.88059 17.0208 9.28656 17.0208 9.74328V12.2806C17.0208 12.6866 16.8229 13.0925 16.4271 13.3463L14.349 14.6149C14.0026 14.8179 13.5573 14.8179 13.1615 14.6149L11.0339 13.3463C10.6875 13.1433 10.4401 12.7373 10.4401 12.2806V10.6567L8.5599 11.7731V13.4478C8.5599 13.8537 8.75781 14.2597 9.15365 14.5134L13.1615 16.8985C13.5078 17.1015 13.9531 17.1015 14.349 16.8985L18.3568 14.5134C18.7031 14.3104 18.9505 13.9045 18.9505 13.4478V8.62686C18.9505 8.22089 18.7526 7.81492 18.3568 7.56119L14.349 5.17612Z" fill="#8247E5"/>
</g>
<defs>
<clipPath id="clip0_87_1312">
<rect width="19" height="17" fill="white"/>
</clipPath>
</defs>
</svg>
